<?xml version="1.0" encoding="utf-8"?>
<!-- Generator: Adobe Illustrator 21.1.0, SVG Export Plug-In . SVG Version: 6.00 Build 0)  -->
<svg version="1.1" id="Layer_1" xmlns="http://www.w3.org/2000/svg" xmlns:xlink="http://www.w3.org/1999/xlink" x="0px" y="0px"
	 viewBox="0 0 336.7 65.8" style="enable-background:new 0 0 336.7 65.8;" xml:space="preserve">
<style type="text/css">
	.st0{stroke:#000000;stroke-width:0.1;stroke-miterlimit:10;}
	.st1{fill:#E92249;}
</style>
<g>
	<path d="M88.1,59.6c-0.5,0.2-1.6,0.5-2.9,0.5c-1.4,0-2.6-0.4-3.5-1.2c-0.8-0.8-1.3-2-1.3-3.5c0-2.8,1.9-4.9,5.1-4.9
		c1.1,0,1.9,0.2,2.4,0.4l-0.3,1c-0.5-0.2-1.1-0.4-2.1-0.4c-2.3,0-3.8,1.4-3.8,3.8c0,2.4,1.4,3.8,3.6,3.8c0.8,0,1.3-0.1,1.6-0.3V56
		h-1.9v-1h3.1V59.6z"/>
	<path d="M90.7,50.1h1.2V60h-1.2V50.1z"/>
	<path d="M100.9,56.6c0,2.5-1.7,3.6-3.4,3.6c-1.8,0-3.3-1.3-3.3-3.5c0-2.3,1.5-3.6,3.4-3.6C99.6,53.1,100.9,54.5,100.9,56.6z
		 M95.5,56.6c0,1.5,0.9,2.6,2.1,2.6c1.2,0,2.1-1.1,2.1-2.6c0-1.1-0.6-2.6-2-2.6C96.2,54,95.5,55.4,95.5,56.6z"/>
	<path d="M103.2,60c0-0.5,0.1-1.1,0.1-1.8v-8.2h1.2v4.3h0c0.4-0.8,1.2-1.2,2.3-1.2c1.7,0,2.9,1.4,2.9,3.5c0,2.4-1.5,3.6-3,3.6
		c-1,0-1.8-0.4-2.3-1.3h0l-0.1,1.1H103.2z M104.5,57.3c0,0.2,0,0.3,0.1,0.4c0.2,0.9,1,1.4,1.8,1.4c1.3,0,2.1-1.1,2.1-2.6
		c0-1.4-0.7-2.5-2-2.5c-0.8,0-1.6,0.6-1.9,1.5c0,0.1-0.1,0.3-0.1,0.5V57.3z"/>
	<path d="M115.8,60l-0.1-0.9h0c-0.4,0.5-1.1,1-2.1,1c-1.4,0-2.1-1-2.1-1.9c0-1.6,1.5-2.5,4.1-2.5v-0.1c0-0.6-0.2-1.6-1.5-1.6
		c-0.6,0-1.3,0.2-1.8,0.5l-0.3-0.8c0.6-0.4,1.4-0.6,2.2-0.6c2.1,0,2.6,1.4,2.6,2.8v2.5c0,0.6,0,1.2,0.1,1.6H115.8z M115.6,56.6
		c-1.3,0-2.9,0.2-2.9,1.5c0,0.8,0.5,1.2,1.2,1.2c0.9,0,1.4-0.6,1.6-1.1c0-0.1,0.1-0.3,0.1-0.4V56.6z"/>
	<path d="M119.6,50.1h1.2V60h-1.2V50.1z"/>
	<path d="M133.3,50.1v8.2c0,0.6,0,1.3,0.1,1.8h-1.1l-0.1-1.2h0c-0.4,0.8-1.2,1.3-2.3,1.3c-1.6,0-2.9-1.4-2.9-3.4
		c0-2.3,1.4-3.6,3-3.6c1,0,1.7,0.5,2,1h0v-4H133.3z M132.1,56c0-0.2,0-0.4-0.1-0.5c-0.2-0.8-0.9-1.4-1.8-1.4c-1.3,0-2,1.1-2,2.6
		c0,1.4,0.7,2.5,2,2.5c0.8,0,1.6-0.5,1.8-1.5c0-0.2,0.1-0.3,0.1-0.5V56z"/>
	<path d="M136.1,55.4c0-0.8,0-1.5-0.1-2.1h1.1l0,1.3h0.1c0.3-0.9,1.1-1.5,1.9-1.5c0.1,0,0.2,0,0.4,0v1.2c-0.1,0-0.3,0-0.4,0
		c-0.9,0-1.5,0.7-1.7,1.6c0,0.2-0.1,0.4-0.1,0.6V60h-1.2V55.4z"/>
	<path d="M142.9,51.3c0,0.4-0.3,0.8-0.8,0.8c-0.4,0-0.7-0.3-0.7-0.8c0-0.4,0.3-0.8,0.8-0.8C142.6,50.6,142.9,50.9,142.9,51.3z
		 M141.6,60v-6.8h1.2V60H141.6z"/>
	<path d="M146.1,53.2l1.3,3.8c0.2,0.6,0.4,1.2,0.5,1.7h0c0.2-0.6,0.4-1.1,0.6-1.7l1.3-3.8h1.3l-2.7,6.8h-1.2l-2.6-6.8H146.1z"/>
	<path d="M153.7,56.8c0,1.7,1.1,2.4,2.3,2.4c0.9,0,1.4-0.2,1.9-0.4l0.2,0.9c-0.4,0.2-1.2,0.4-2.3,0.4c-2.1,0-3.3-1.4-3.3-3.4
		c0-2,1.2-3.7,3.2-3.7c2.2,0,2.8,1.9,2.8,3.2c0,0.3,0,0.4,0,0.6H153.7z M157.3,56c0-0.8-0.3-2-1.7-2c-1.2,0-1.8,1.1-1.9,2H157.3z"/>
	<path d="M160.8,55.4c0-0.8,0-1.5-0.1-2.1h1.1l0,1.3h0.1c0.3-0.9,1-1.5,1.9-1.5c0.1,0,0.2,0,0.3,0v1.2c-0.1,0-0.3,0-0.4,0
		c-0.9,0-1.5,0.7-1.7,1.6c0,0.2-0.1,0.4-0.1,0.6V60h-1.2V55.4z"/>
	<path d="M170,55.4c0-0.8,0-1.5-0.1-2.1h1.1l0,1.3h0.1c0.3-0.9,1-1.5,1.9-1.5c0.1,0,0.2,0,0.3,0v1.2c-0.1,0-0.3,0-0.4,0
		c-0.9,0-1.5,0.7-1.7,1.6c0,0.2-0.1,0.4-0.1,0.6V60H170V55.4z"/>
	<path d="M176.8,51.3c0,0.4-0.3,0.8-0.8,0.8c-0.4,0-0.7-0.3-0.7-0.8c0-0.4,0.3-0.8,0.8-0.8C176.5,50.6,176.8,50.9,176.8,51.3z
		 M175.4,60v-6.8h1.2V60H175.4z"/>
	<path d="M179.3,58.8c0.4,0.2,1,0.5,1.6,0.5c0.9,0,1.3-0.4,1.3-1c0-0.6-0.3-0.9-1.3-1.2c-1.2-0.4-1.8-1.1-1.8-1.9c0-1.1,0.9-2,2.3-2
		c0.7,0,1.3,0.2,1.7,0.4l-0.3,0.9c-0.3-0.2-0.8-0.4-1.4-0.4c-0.7,0-1.1,0.4-1.1,0.9c0,0.6,0.4,0.8,1.3,1.1c1.2,0.4,1.8,1,1.8,2
		c0,1.2-0.9,2-2.5,2c-0.7,0-1.4-0.2-1.9-0.5L179.3,58.8z"/>
	<path d="M187,56.3L187,56.3c0.2-0.2,0.4-0.5,0.6-0.8l2-2.3h1.5l-2.6,2.8l3,4H190l-2.3-3.3l-0.6,0.7V60h-1.2v-9.9h1.2V56.3z"/>
	<path d="M197,55.1c0-0.7,0-1.3-0.1-1.8h1.1l0.1,1.1h0c0.4-0.6,1-1.2,2.1-1.2c0.9,0,1.6,0.6,1.9,1.4h0c0.2-0.4,0.5-0.7,0.8-0.9
		c0.4-0.3,0.9-0.5,1.5-0.5c0.9,0,2.2,0.6,2.2,2.9v4h-1.2v-3.8c0-1.3-0.5-2.1-1.5-2.1c-0.7,0-1.2,0.5-1.5,1.1
		c-0.1,0.2-0.1,0.4-0.1,0.6V60h-1.2V56c0-1.1-0.5-1.9-1.4-1.9c-0.8,0-1.3,0.6-1.5,1.2c-0.1,0.2-0.1,0.4-0.1,0.6V60H197V55.1z"/>
	<path d="M213.2,60l-0.1-0.9h0c-0.4,0.5-1.1,1-2.1,1c-1.4,0-2.1-1-2.1-1.9c0-1.6,1.5-2.5,4.1-2.5v-0.1c0-0.6-0.2-1.6-1.5-1.6
		c-0.6,0-1.3,0.2-1.8,0.5l-0.3-0.8c0.6-0.4,1.4-0.6,2.2-0.6c2.1,0,2.6,1.4,2.6,2.8v2.5c0,0.6,0,1.2,0.1,1.6H213.2z M213,56.6
		c-1.3,0-2.9,0.2-2.9,1.5c0,0.8,0.5,1.2,1.2,1.2c0.9,0,1.4-0.6,1.6-1.1c0-0.1,0.1-0.3,0.1-0.4V56.6z"/>
	<path d="M217,55.1c0-0.7,0-1.3-0.1-1.8h1.1l0.1,1.1h0c0.3-0.6,1.1-1.3,2.2-1.3c0.9,0,2.4,0.6,2.4,2.9v4h-1.2v-3.9
		c0-1.1-0.4-2-1.6-2c-0.8,0-1.4,0.6-1.7,1.3c-0.1,0.2-0.1,0.4-0.1,0.6V60H217V55.1z"/>
	<path d="M229.3,60l-0.1-0.9h0c-0.4,0.5-1.1,1-2.1,1c-1.4,0-2.1-1-2.1-1.9c0-1.6,1.5-2.5,4.1-2.5v-0.1c0-0.6-0.2-1.6-1.5-1.6
		c-0.6,0-1.3,0.2-1.8,0.5l-0.3-0.8c0.6-0.4,1.4-0.6,2.2-0.6c2.1,0,2.6,1.4,2.6,2.8v2.5c0,0.6,0,1.2,0.1,1.6H229.3z M229.1,56.6
		c-1.3,0-2.9,0.2-2.9,1.5c0,0.8,0.5,1.2,1.2,1.2c0.9,0,1.4-0.6,1.6-1.1c0-0.1,0.1-0.3,0.1-0.4V56.6z"/>
	<path d="M238.9,53.2c0,0.5-0.1,1-0.1,1.9V59c0,1.6-0.3,2.5-1,3.1c-0.7,0.6-1.6,0.8-2.5,0.8c-0.8,0-1.7-0.2-2.3-0.6l0.3-0.9
		c0.4,0.3,1.1,0.5,2,0.5c1.3,0,2.2-0.7,2.2-2.4v-0.8h0c-0.4,0.6-1.1,1.1-2.2,1.1c-1.7,0-2.9-1.4-2.9-3.3c0-2.3,1.5-3.6,3.1-3.6
		c1.2,0,1.8,0.6,2.1,1.2h0l0.1-1H238.9z M237.7,55.9c0-0.2,0-0.4-0.1-0.6c-0.2-0.7-0.8-1.3-1.7-1.3c-1.2,0-2,1-2,2.6
		c0,1.3,0.7,2.4,2,2.4c0.8,0,1.4-0.5,1.7-1.3c0.1-0.2,0.1-0.4,0.1-0.7V55.9z"/>
	<path d="M242.4,56.8c0,1.7,1.1,2.4,2.3,2.4c0.9,0,1.4-0.2,1.9-0.4l0.2,0.9c-0.4,0.2-1.2,0.4-2.3,0.4c-2.1,0-3.3-1.4-3.3-3.4
		c0-2,1.2-3.7,3.2-3.7c2.2,0,2.8,1.9,2.8,3.2c0,0.3,0,0.4,0,0.6H242.4z M246,56c0-0.8-0.3-2-1.7-2c-1.2,0-1.8,1.1-1.9,2H246z"/>
	<path d="M249.5,55.1c0-0.7,0-1.3-0.1-1.8h1.1l0.1,1.1h0c0.4-0.6,1-1.2,2.1-1.2c0.9,0,1.6,0.6,1.9,1.4h0c0.2-0.4,0.5-0.7,0.8-0.9
		c0.4-0.3,0.9-0.5,1.5-0.5c0.9,0,2.2,0.6,2.2,2.9v4H258v-3.8c0-1.3-0.5-2.1-1.5-2.1c-0.7,0-1.2,0.5-1.5,1.1
		c-0.1,0.2-0.1,0.4-0.1,0.6V60h-1.2V56c0-1.1-0.5-1.9-1.4-1.9c-0.8,0-1.3,0.6-1.5,1.2c-0.1,0.2-0.1,0.4-0.1,0.6V60h-1.2V55.1z"/>
	<path d="M262.7,56.8c0,1.7,1.1,2.4,2.3,2.4c0.9,0,1.4-0.2,1.9-0.4l0.2,0.9c-0.4,0.2-1.2,0.4-2.3,0.4c-2.1,0-3.3-1.4-3.3-3.4
		c0-2,1.2-3.7,3.2-3.7c2.2,0,2.8,1.9,2.8,3.2c0,0.3,0,0.4,0,0.6H262.7z M266.3,56c0-0.8-0.3-2-1.7-2c-1.2,0-1.8,1.1-1.9,2H266.3z"/>
	<path d="M269.8,55.1c0-0.7,0-1.3-0.1-1.8h1.1l0.1,1.1h0c0.3-0.6,1.1-1.3,2.2-1.3c0.9,0,2.4,0.6,2.4,2.9v4h-1.2v-3.9
		c0-1.1-0.4-2-1.6-2c-0.8,0-1.4,0.6-1.7,1.3c-0.1,0.2-0.1,0.4-0.1,0.6V60h-1.2V55.1z"/>
	<path d="M279.8,51.3v1.9h1.8v0.9h-1.8v3.7c0,0.8,0.2,1.3,0.9,1.3c0.3,0,0.6,0,0.7-0.1l0.1,0.9c-0.2,0.1-0.6,0.2-1.1,0.2
		c-0.6,0-1-0.2-1.3-0.5c-0.4-0.4-0.5-1-0.5-1.8v-3.7h-1.1v-0.9h1.1v-1.6L279.8,51.3z"/>
</g>
<g>
	<path class="st0" d="M329.4,38c-2.3-3.2,1.2-6.6,4.2-4.2c0,0,0,0,0,0C335.9,36.9,332.5,40.4,329.4,38z M329,35.9
		c0,1.3,1.1,2.4,2.4,2.4c1.3,0,2.4-1.1,2.4-2.4c0-1.4-1.1-2.4-2.4-2.4C330.1,33.5,329,34.6,329,35.9z M331.4,36.3h-0.6v1.3h-0.5
		v-3.3h1.3c0.6,0,1.1,0.4,1.1,1c0,0.7-0.7,1-0.8,1l0.9,1.3h-0.6L331.4,36.3z M330.8,34.7v1.2h0.9c0.3,0,0.6-0.2,0.6-0.6
		c0-0.4-0.3-0.6-0.6-0.6H330.8z"/>
</g>
<g>
	<path d="M98.7,25v-0.7c0-4.5-2.2-6.8-6.7-6.8c-3.1,0-5.7,1-8,3.1l-2.2-2.6c2.5-2.5,6.1-3.8,11.1-3.8c1.3,0,2.5,0.2,3.7,0.6
		c1.2,0.4,2.2,0.9,3,1.7c0.9,0.8,1.5,1.7,2.1,2.9c0.5,1.2,0.8,2.5,0.8,4.1v11.7c0,1,0,2.1,0.1,3.2c0.1,1.1,0.2,2,0.3,2.7h-3.6
		c-0.1-0.6-0.2-1.3-0.3-2.1c-0.1-0.7-0.1-1.5-0.1-2.2h-0.1c-1.1,1.8-2.4,3-3.8,3.8c-1.5,0.8-3.3,1.1-5.4,1.1c-1.2,0-2.3-0.2-3.4-0.5
		c-1.1-0.3-2-0.8-2.9-1.5c-0.8-0.7-1.5-1.5-2-2.4c-0.5-0.9-0.8-2.1-0.8-3.3c0-2.1,0.5-3.8,1.6-5c1.1-1.2,2.5-2.1,4.1-2.7
		c1.7-0.6,3.4-1,5.3-1.1c1.9-0.1,3.6-0.2,5.2-0.2H98.7z M96.8,28.1c-0.9,0-2.1,0-3.5,0.1c-1.4,0.1-2.7,0.3-4,0.7
		c-1.3,0.4-2.4,0.9-3.3,1.6c-0.9,0.7-1.4,1.8-1.4,3.1c0,0.9,0.2,1.6,0.5,2.2c0.4,0.6,0.8,1.1,1.4,1.5c0.6,0.4,1.3,0.7,2,0.8
		c0.7,0.2,1.5,0.3,2.2,0.3c1.3,0,2.5-0.2,3.5-0.7c1-0.4,1.8-1.1,2.5-1.8c0.7-0.8,1.2-1.7,1.5-2.7c0.3-1,0.5-2.1,0.5-3.3v-1.9H96.8z"
		/>
	<path d="M110.2,41.1h-3.7V4.9h3.7V41.1z"/>
	<path d="M117.8,29c0.1,1.3,0.4,2.5,0.9,3.7c0.5,1.2,1.2,2.2,2.1,3c0.9,0.8,1.8,1.5,3,2c1.1,0.5,2.3,0.7,3.6,0.7
		c2,0,3.7-0.5,5.1-1.4c1.4-0.9,2.5-2,3.3-3.2l2.8,2.3c-1.6,2-3.3,3.4-5.2,4.2c-1.9,0.9-3.9,1.3-6.1,1.3c-1.9,0-3.7-0.3-5.4-1
		c-1.7-0.7-3.1-1.6-4.3-2.9c-1.2-1.2-2.1-2.7-2.8-4.4c-0.7-1.7-1-3.5-1-5.5c0-2,0.3-3.8,1-5.5c0.7-1.7,1.6-3.1,2.8-4.4
		c1.2-1.2,2.6-2.2,4.2-2.9c1.6-0.7,3.3-1,5.2-1c2,0,3.7,0.4,5.3,1.1c1.6,0.7,2.9,1.6,3.9,2.8c1.1,1.2,1.9,2.6,2.4,4.1
		c0.6,1.6,0.8,3.3,0.8,5.1V29H117.8z M135.6,26c0-2.5-0.7-4.5-2.2-6.1c-1.5-1.5-3.6-2.3-6.3-2.3c-1.2,0-2.3,0.2-3.5,0.7
		c-1.1,0.5-2.1,1.1-2.9,1.9c-0.8,0.8-1.5,1.7-2,2.7c-0.5,1-0.8,2-0.8,3.1H135.6z"/>
	<path d="M142.9,23.1c0-1.2,0-2.3-0.1-3.5c-0.1-1.2-0.1-2.7-0.1-4.6h3.6v4.9h0.1c0.3-0.7,0.6-1.4,1.1-2c0.5-0.7,1.1-1.2,1.8-1.8
		c0.7-0.5,1.5-0.9,2.4-1.3c0.9-0.3,1.9-0.5,3.1-0.5c1,0,1.5,0.1,2.2,0.3l-0.2,3.6c-0.5-0.2-1.2-0.3-2.1-0.3c-1.4,0-2.6,0.3-3.6,0.8
		c-1,0.5-1.8,1.2-2.5,2.1c-0.7,0.8-1.2,1.7-1.5,2.7c-0.3,1-0.5,1.9-0.5,2.8v14.8h-3.7V23.1z"/>
	<path d="M174.5,18.3H167v15.4c0,1,0.1,1.8,0.3,2.4s0.4,1.1,0.8,1.4c0.3,0.3,0.7,0.6,1.2,0.7c0.5,0.1,1,0.2,1.5,0.2
		c0.6,0,1.3-0.1,2-0.3c0.7-0.2,1.3-0.4,1.8-0.7l0.2,3.4c-1.4,0.6-3,0.9-5,0.9c-0.7,0-1.4-0.1-2.2-0.3c-0.8-0.2-1.5-0.5-2.1-1.1
		c-0.6-0.5-1.2-1.2-1.6-2.1c-0.4-0.9-0.6-2.1-0.6-3.5V18.3h-3.5v-3.4h3.5V5.5h3.7v9.4h7.5V18.3z"/>
	<path d="M204.9,41.1h-3.7v-4.4h-0.1c-0.6,0.9-1.3,1.7-2.1,2.3c-0.8,0.6-1.7,1.2-2.6,1.6c-0.9,0.4-1.8,0.7-2.8,0.9
		c-0.9,0.2-1.9,0.3-2.7,0.3c-2,0-3.9-0.3-5.6-1c-1.7-0.7-3.2-1.6-4.4-2.9c-1.2-1.2-2.2-2.7-2.9-4.4c-0.7-1.7-1-3.5-1-5.5
		c0-2,0.3-3.8,1-5.5c0.7-1.7,1.6-3.1,2.9-4.4c1.2-1.2,2.7-2.2,4.4-2.9c1.7-0.7,3.6-1,5.6-1c0.9,0,1.8,0.1,2.7,0.3
		c1,0.2,1.9,0.5,2.8,0.9c0.9,0.4,1.8,0.9,2.6,1.6c0.8,0.6,1.5,1.4,2.1,2.3h0.1V4.9h3.7V41.1z M181,28c0,1.5,0.2,2.8,0.7,4.1
		c0.5,1.3,1.1,2.4,2,3.3c0.9,0.9,1.9,1.7,3.1,2.2c1.2,0.5,2.6,0.8,4.1,0.8c1.5,0,2.9-0.3,4.2-0.8c1.3-0.5,2.4-1.3,3.3-2.2
		c0.9-0.9,1.7-2,2.2-3.3c0.5-1.3,0.8-2.6,0.8-4.1c0-1.5-0.3-2.8-0.8-4.1c-0.5-1.3-1.2-2.4-2.2-3.3c-0.9-0.9-2-1.7-3.3-2.2
		c-1.3-0.5-2.7-0.8-4.2-0.8c-1.5,0-2.9,0.3-4.1,0.8c-1.2,0.5-2.2,1.3-3.1,2.2c-0.9,0.9-1.5,2-2,3.3C181.2,25.2,181,26.6,181,28z"/>
	<path d="M209,23.1c0-1.2,0-2.3-0.1-3.5c-0.1-1.2-0.1-2.7-0.1-4.6h3.6v4.9h0.1c0.3-0.7,0.6-1.4,1.1-2c0.5-0.7,1.1-1.2,1.8-1.8
		c0.7-0.5,1.5-0.9,2.4-1.3c0.9-0.3,1.9-0.5,3.1-0.5c1,0,1.5,0.1,2.2,0.3l-0.2,3.6c-0.5-0.2-1.2-0.3-2.1-0.3c-1.4,0-2.6,0.3-3.6,0.8
		c-1,0.5-1.8,1.2-2.5,2.1c-0.7,0.8-1.2,1.7-1.5,2.7c-0.3,1-0.5,1.9-0.5,2.8v14.8H209V23.1z"/>
	<path d="M229.9,41.1h-3.7V14.9h3.7V41.1z"/>
	<path d="M247.5,41.1h-4.1l-10.6-26.1h4.4l8.4,22h0.1l8.3-22h4.2L247.5,41.1z"/>
	<path d="M265.2,41.1h-3.7V14.9h3.7V41.1z"/>
	<path d="M229.9,9.2h-3.7v-4h3.7V9.2z"/>
	<path d="M265.2,9.2h-3.7v-4h3.7V9.2z"/>
	<path d="M273.2,14.9c0.1,0.7,0.1,1.4,0.1,2.1c0,0.7,0,1.4,0,2.1h0.1c0.4-0.7,0.9-1.4,1.6-2c0.6-0.6,1.3-1.1,2.1-1.5
		c0.8-0.4,1.6-0.8,2.5-1c0.9-0.2,1.7-0.4,2.6-0.4c3.4,0,5.8,0.9,7.4,2.7c1.6,1.8,2.4,4.3,2.4,7.6v16.6h-3.7V26.6
		c0-2.9-0.5-5.1-1.5-6.7c-1-1.5-2.9-2.3-5.6-2.3c-0.2,0-0.7,0.1-1.6,0.2c-0.9,0.1-1.8,0.6-2.7,1.2c-0.9,0.7-1.8,1.7-2.5,3
		c-0.7,1.3-1.1,3.2-1.1,5.6v13.4h-3.7V20.7c0-0.7,0-1.6-0.1-2.7c-0.1-1.1-0.1-2.1-0.2-3.1H273.2z"/>
	<path d="M299,46.3c1.1,1.5,2.5,2.6,4.2,3.5c1.7,0.9,3.7,1.3,5.8,1.3c1.9,0,3.4-0.3,4.7-0.8c1.3-0.5,2.4-1.3,3.2-2.2
		c0.8-0.9,1.4-2,1.7-3.3c0.4-1.2,0.5-2.6,0.5-4v-4.7h-0.1c-1.2,1.8-2.6,3.1-4.4,3.8c-1.7,0.7-3.5,1.1-5.4,1.1c-1.9,0-3.7-0.3-5.3-1
		c-1.7-0.7-3.1-1.6-4.3-2.8c-1.2-1.2-2.2-2.6-2.9-4.2c-0.7-1.6-1.1-3.4-1.1-5.3c0-1.9,0.3-3.7,1-5.3c0.7-1.6,1.6-3.1,2.8-4.3
		c1.2-1.2,2.6-2.2,4.2-2.9c1.6-0.7,3.4-1,5.3-1c0.8,0,1.6,0.1,2.5,0.2c0.9,0.1,1.8,0.4,2.6,0.8c0.9,0.4,1.7,0.9,2.6,1.5
		c0.9,0.7,1.7,1.5,2.4,2.5h0.1v-4.4h3.7v25.9c0,1.4-0.2,2.9-0.5,4.5c-0.4,1.6-1,3.1-2.1,4.4c-1,1.3-2.4,2.5-4.3,3.4
		c-1.8,0.9-4.2,1.3-7.2,1.3c-2.6,0-4.9-0.4-7-1.3c-2-0.9-3.9-2.2-5.6-4L299,46.3z M299.7,27.7c0,1.4,0.3,2.7,0.8,3.9
		c0.5,1.2,1.2,2.3,2.1,3.2c0.9,0.9,1.9,1.6,3.1,2.2c1.2,0.5,2.4,0.8,3.8,0.8c1.3,0,2.6-0.2,3.8-0.7c1.2-0.5,2.3-1.2,3.2-2
		c0.9-0.9,1.6-1.9,2.2-3.2c0.5-1.2,0.7-2.6,0.7-4.1c0-1.4-0.2-2.7-0.7-3.9c-0.4-1.2-1.1-2.3-2-3.2c-0.9-0.9-1.9-1.6-3.1-2.2
		c-1.2-0.5-2.6-0.8-4.1-0.8c-1.4,0-2.7,0.3-3.8,0.8c-1.2,0.5-2.2,1.3-3.1,2.2c-0.9,0.9-1.6,2-2.1,3.2
		C299.9,25,299.7,26.3,299.7,27.7z"/>
</g>
<g>
	<path class="st1" d="M40.6,65.8"/>
</g>
<polygon class="st1" points="63.7,57.2 26.2,63.7 26.2,2.8 63.7,9.3 "/>
<polygon class="st1" points="3.1,7.5 3.1,58.9 13.5,57.1 13.5,9.3 "/>
<polygon class="st1" points="15.1,6.3 15.1,61.2 24.4,59.6 24.4,7.9 "/>
</svg>
